<svg xmlns="http://www.w3.org/2000/svg" width="800" height="500" viewBox="0 0 800 500">
  <rect width="800" height="500" fill="#F8FAFF"/>
  <rect x="20" y="20" width="760" height="60" rx="8" fill="#EEF2FF"/>
  <rect x="32" y="36" width="200" height="14" rx="4" fill="#6B7280"/>
  <rect x="32" y="56" width="300" height="8" rx="3" fill="#D1D5DB"/>
  <rect x="20" y="100" width="365" height="180" rx="10" fill="white" stroke="#E5E7EB" stroke-width="1.5"/>
  <rect x="36" y="116" width="120" height="12" rx="3" fill="#1A3580"/>
  <rect x="36" y="136" width="80" height="8" rx="3" fill="#9CA3AF"/>
  <rect x="36" y="156" width="140" height="24" rx="12" fill="#EEF2FF"/>
  <rect x="184" y="156" width="140" height="24" rx="12" fill="#FEF9C3"/>
  <rect x="36" y="188" width="140" height="24" rx="12" fill="#ECFDF5"/>
  <rect x="184" y="188" width="140" height="24" rx="12" fill="#EEF2FF"/>
  <rect x="36" y="220" width="320" height="8" rx="3" fill="#E5E7EB"/>
  <rect x="36" y="236" width="280" height="8" rx="3" fill="#E5E7EB"/>
  <rect x="415" y="100" width="365" height="180" rx="10" fill="white" stroke="#E5E7EB" stroke-width="1.5"/>
  <rect x="431" y="116" width="120" height="12" rx="3" fill="#1A3580"/>
  <rect x="431" y="136" width="80" height="8" rx="3" fill="#9CA3AF"/>
  <rect x="431" y="156" width="140" height="24" rx="12" fill="#EEF2FF"/>
  <rect x="579" y="156" width="140" height="24" rx="12" fill="#FEF9C3"/>
  <rect x="431" y="188" width="140" height="24" rx="12" fill="#ECFDF5"/>
  <rect x="579" y="188" width="140" height="24" rx="12" fill="#EEF2FF"/>
  <rect x="431" y="220" width="320" height="8" rx="3" fill="#E5E7EB"/>
  <rect x="431" y="236" width="280" height="8" rx="3" fill="#E5E7EB"/>
  <rect x="20" y="300" width="365" height="180" rx="10" fill="white" stroke="#E5E7EB" stroke-width="1.5"/>
  <rect x="36" y="316" width="120" height="12" rx="3" fill="#1A3580"/>
  <rect x="36" y="336" width="80" height="8" rx="3" fill="#9CA3AF"/>
  <rect x="36" y="356" width="140" height="24" rx="12" fill="#EEF2FF"/>
  <rect x="184" y="356" width="140" height="24" rx="12" fill="#FEF9C3"/>
  <rect x="415" y="300" width="365" height="180" rx="10" fill="white" stroke="#E5E7EB" stroke-width="1.5"/>
  <rect x="431" y="316" width="120" height="12" rx="3" fill="#1A3580"/>
  <rect x="431" y="336" width="80" height="8" rx="3" fill="#9CA3AF"/>
  <rect x="431" y="356" width="140" height="24" rx="12" fill="#EEF2FF"/>
  <rect x="579" y="356" width="140" height="24" rx="12" fill="#FEF9C3"/>
</svg>
