<svg xmlns="http://www.w3.org/2000/svg" width="800" height="500" viewBox="0 0 800 500">
  <rect width="800" height="500" fill="#F8FAFF"/>
  <rect x="20" y="20" width="760" height="50" rx="8" fill="white" stroke="#E5E7EB" stroke-width="1.5"/>
  <rect x="32" y="32" width="180" height="12" rx="3" fill="#1A3580"/>
  <rect x="32" y="50" width="260" height="8" rx="3" fill="#D1D5DB"/>
  <rect x="20" y="90" width="220" height="80" rx="10" fill="#EEF2FF"/>
  <rect x="36" y="104" width="60" height="10" rx="3" fill="#6B7280"/>
  <rect x="36" y="120" width="40" height="20" rx="3" fill="#1A3580"/>
  <rect x="260" y="90" width="220" height="80" rx="10" fill="#F0FDF4"/>
  <rect x="276" y="104" width="80" height="10" rx="3" fill="#6B7280"/>
  <rect x="276" y="120" width="40" height="20" rx="3" fill="#16A34A"/>
  <rect x="500" y="90" width="220" height="80" rx="10" fill="#FEF9C3"/>
  <rect x="516" y="104" width="70" height="10" rx="3" fill="#6B7280"/>
  <rect x="516" y="120" width="40" height="20" rx="3" fill="#CA8A04"/>
  <rect x="20" y="190" width="760" height="40" rx="6" fill="#F5D134"/>
  <rect x="36" y="202" width="200" height="10" rx="3" fill="#92400E"/>
  <rect x="20" y="248" width="760" height="230" rx="10" fill="white" stroke="#E5E7EB" stroke-width="1.5"/>
  <rect x="36" y="266" width="160" height="14" rx="4" fill="#1A3580"/>
  <rect x="36" y="290" width="280" height="8" rx="3" fill="#9CA3AF"/>
  <rect x="36" y="316" width="16" height="16" rx="8" fill="#16A34A"/>
  <rect x="60" y="320" width="300" height="8" rx="3" fill="#374151"/>
  <rect x="36" y="340" width="16" height="16" rx="8" fill="#16A34A"/>
  <rect x="60" y="344" width="260" height="8" rx="3" fill="#374151"/>
  <rect x="36" y="364" width="16" height="16" rx="8" fill="#16A34A"/>
  <rect x="60" y="368" width="320" height="8" rx="3" fill="#374151"/>
  <rect x="36" y="388" width="16" height="16" rx="8" fill="#16A34A"/>
  <rect x="60" y="392" width="240" height="8" rx="3" fill="#374151"/>
  <rect x="36" y="420" width="100" height="24" rx="12" fill="#EEF2FF"/>
  <rect x="144" y="420" width="140" height="24" rx="12" fill="#EEF2FF"/>
  <rect x="292" y="420" width="180" height="24" rx="12" fill="#EEF2FF"/>
</svg>
